<?xml version="1.0" standalone="no"?>
<!DOCTYPE svg PUBLIC "-//W3C//DTD SVG 20010904//EN"
 "http://www.w3.org/TR/2001/REC-SVG-20010904/DTD/svg10.dtd">
<svg version="1.0" xmlns="http://www.w3.org/2000/svg"
 width="200.000000pt" height="200.000000pt" viewBox="0 0 200.000000 200.000000"
 preserveAspectRatio="xMidYMid meet">
<metadata>
Created by potrace 1.11, written by Peter Selinger 2001-2013
</metadata>
<g transform="translate(0.000000,200.000000) scale(0.100000,-0.100000)"
fill="#000000" stroke="none">
<path d="M226 1775 l-26 -24 0 -751 0 -751 26 -24 27 -25 742 0 c736 0 743 0
769 21 l26 20 0 759 0 759 -26 20 c-26 21 -33 21 -769 21 l-742 0 -27 -25z
m428 -257 c6 -43 36 -440 36 -471 0 -9 43 -38 114 -76 63 -34 117 -61 120 -61
3 0 6 34 6 75 0 41 1 75 3 75 2 0 66 -33 143 -74 l139 -74 3 74 c2 41 5 74 8
74 4 0 71 -34 150 -76 107 -56 145 -81 149 -97 2 -12 11 -107 19 -212 l15
-190 -25 -22 -25 -23 -515 0 c-501 0 -515 1 -534 20 -24 24 -23 5 -10 470 5
184 10 398 11 475 1 77 4 143 6 148 2 4 44 7 93 7 l89 0 5 -42z"/>
</g>
</svg>
